<?xml version="1.0" encoding="UTF-8"?>
<!DOCTYPE svg PUBLIC "-//W3C//DTD SVG 1.1//EN" "http://www.w3.org/Graphics/SVG/1.1/DTD/svg11.dtd">
<svg version="1.1" xmlns="http://www.w3.org/2000/svg" xmlns:xlink="http://www.w3.org/1999/xlink" x="0" y="0" width="300" height="100" viewBox="0, 0, 300, 100">
  <g id="Camada_x0020_1">
    <path d="M215.976,43.996 C220.464,43.996 224.184,42.684 227.138,40.057 C230.081,37.43 231.551,34.095 231.551,30.06 C231.551,26.014 230.081,22.667 227.151,20.04 C224.221,17.414 220.488,16.101 215.976,16.101 C211.488,16.101 207.768,17.425 204.814,20.062 C201.873,22.699 200.402,26.035 200.402,30.06 C200.402,34.095 201.873,37.43 204.814,40.057 C207.768,42.684 211.488,43.996 215.976,43.996 z M215.976,48 C209.993,48 205.049,46.306 201.143,42.928 C197.249,39.549 195.296,35.26 195.296,30.06 C195.296,24.849 197.249,20.55 201.169,17.171 C205.074,13.791 210.018,12.097 215.976,12.097 C221.971,12.097 226.928,13.791 230.858,17.191 C234.802,20.581 236.767,24.87 236.767,30.06 C236.767,35.26 234.802,39.549 230.884,42.928 C226.953,46.306 221.996,48 215.976,48 z M119.523,33.878 L137.005,33.878 L128.233,18.708 L119.523,33.878 z M106.71,47.099 L126.182,12.837 L130.285,12.837 L149.967,47.099 L144.61,47.099 L139.204,37.884 L117.251,37.884 L112.004,47.099 L106.71,47.099 z M52.38,33.878 L69.863,33.878 L61.091,18.708 L52.38,33.878 z M39.567,47.099 L59.04,12.837 L63.143,12.837 L82.824,47.099 L77.468,47.099 L72.062,37.882 L50.107,37.882 L44.862,47.099 L39.567,47.099 z M18.296,16.779 L6.194,16.779 L6.194,43.159 L18.296,43.159 C23.185,43.159 27.043,41.972 29.844,39.609 C32.657,37.237 34.057,34.038 34.057,30.001 C34.057,26.028 32.633,22.828 29.771,20.413 C26.92,17.987 23.086,16.779 18.296,16.779 z M18.296,12.837 C24.548,12.837 29.598,14.427 33.432,17.616 C37.252,20.805 39.169,24.947 39.169,30.064 C39.169,35.214 37.288,39.344 33.518,42.45 C29.746,45.553 24.672,47.099 18.296,47.099 L1.268,47.099 L1.268,12.837 L18.296,12.837 z M92.297,47.099 L92.297,16.779 L79.01,16.779 L79.01,12.837 L110.627,12.837 L110.627,16.779 L97.261,16.779 L97.261,47.099 L92.297,47.099 z M188.852,39.776 C187.107,42.246 184.836,44.192 182.063,45.596 C178.894,47.196 175.293,48 171.264,48 C165.306,48 160.403,46.306 156.521,42.928 C152.65,39.549 150.709,35.26 150.709,30.06 C150.709,24.849 152.65,20.55 156.545,17.171 C160.428,13.791 165.341,12.097 171.264,12.097 C174.937,12.097 178.278,12.786 181.301,14.173 C184.323,15.56 186.793,17.541 188.685,20.103 L184.545,22.646 C183.291,20.601 181.498,18.992 179.15,17.838 C176.792,16.683 174.163,16.101 171.264,16.101 C166.803,16.101 163.106,17.425 160.169,20.062 C157.245,22.699 155.784,26.035 155.784,30.06 C155.784,34.095 157.245,37.43 160.169,40.057 C163.106,42.684 166.803,43.996 171.264,43.996 C174.384,43.996 177.149,43.329 179.581,42.007 C181.638,40.881 183.394,39.311 184.848,37.293 L188.852,39.776 z M243.281,47.099 L243.281,12.837 L247.87,12.837 L263.995,33.815 L280.217,12.837 L284.732,12.837 L284.732,47.099 L279.823,47.099 L279.823,20.349 L263.995,40.617 L248.166,20.349 L248.166,47.099 L243.281,47.099 z" fill="#183884"/>
    <path d="M12.33,76.426 L12.33,77.293 L3.881,77.293 Q3.952,79.566 5.065,80.779 Q6.178,81.992 8.205,81.992 Q9.002,81.992 9.805,81.775 Q10.608,81.559 11.416,81.125 L11.416,82.613 Q10.631,82.953 9.799,83.123 Q8.967,83.293 8.065,83.293 Q5.416,83.293 3.916,81.617 Q2.416,79.941 2.416,76.953 Q2.416,74.164 3.87,72.465 Q5.323,70.766 7.678,70.766 Q9.811,70.766 11.071,72.289 Q12.33,73.812 12.33,76.426 z M10.866,76.18 Q10.737,74.176 9.87,73.104 Q9.002,72.031 7.502,72.031 Q6.049,72.031 5.077,73.15 Q4.104,74.27 3.928,76.18 z" fill="#01429E"/>
    <path d="M32.35,65.117 L33.862,65.117 L33.862,83 L32.35,83 z" fill="#01429E"/>
    <path d="M64.393,76.426 L64.393,77.293 L55.944,77.293 Q56.014,79.566 57.127,80.779 Q58.241,81.992 60.268,81.992 Q61.065,81.992 61.868,81.775 Q62.67,81.559 63.479,81.125 L63.479,82.613 Q62.694,82.953 61.862,83.123 Q61.03,83.293 60.127,83.293 Q57.479,83.293 55.979,81.617 Q54.479,79.941 54.479,76.953 Q54.479,74.164 55.932,72.465 Q57.385,70.766 59.741,70.766 Q61.873,70.766 63.133,72.289 Q64.393,73.812 64.393,76.426 z M62.928,76.18 Q62.799,74.176 61.932,73.104 Q61.065,72.031 59.565,72.031 Q58.112,72.031 57.139,73.15 Q56.166,74.27 55.991,76.18 z" fill="#01429E"/>
    <path d="M92.405,71.41 L92.288,72.922 Q91.702,72.605 91.034,72.453 Q90.366,72.301 89.569,72.301 Q87.647,72.301 86.428,73.613 Q85.209,74.926 85.209,77.023 Q85.209,79.203 86.364,80.48 Q87.518,81.758 89.475,81.758 Q90.155,81.758 90.858,81.594 Q91.561,81.43 92.311,81.102 L92.452,82.59 Q91.737,82.871 90.963,83.006 Q90.19,83.141 89.381,83.141 Q86.768,83.141 85.18,81.465 Q83.592,79.789 83.592,77 Q83.592,74.305 85.268,72.629 Q86.944,70.953 89.639,70.953 Q90.401,70.953 91.08,71.064 Q91.76,71.176 92.405,71.41 z" fill="#01429E"/>
    <path d="M115.131,67.496 L115.131,71.047 L117.92,71.047 L117.92,72.277 L115.131,72.277 L115.131,79.262 Q115.131,80.715 115.518,81.283 Q115.905,81.852 116.83,81.852 Q117.135,81.852 117.446,81.781 Q117.756,81.711 118.061,81.594 L118.061,82.941 Q117.686,83.059 117.305,83.111 Q116.924,83.164 116.526,83.164 Q114.944,83.164 114.282,82.344 Q113.62,81.523 113.62,79.52 L113.62,72.277 L111.17,72.277 L111.17,71.047 L113.62,71.047 L113.62,68.023 z" fill="#01429E"/>
    <path d="M143.834,70.953 L143.834,72.488 Q143.577,72.43 143.372,72.4 Q143.166,72.371 143.002,72.371 Q141.491,72.371 140.635,73.508 Q139.78,74.645 139.78,76.66 L139.78,83 L138.268,83 L138.268,71.047 L139.663,71.047 L139.663,73.566 Q140.108,72.289 140.998,71.586 Q141.889,70.883 143.073,70.883 Q143.237,70.883 143.418,70.9 Q143.6,70.918 143.834,70.953 z" fill="#01429E"/>
    <path d="M168.342,72.055 Q166.584,72.055 165.5,73.414 Q164.416,74.773 164.416,77 Q164.416,79.215 165.506,80.58 Q166.596,81.945 168.342,81.945 Q170.147,81.945 171.225,80.598 Q172.303,79.25 172.303,77 Q172.303,74.738 171.225,73.396 Q170.147,72.055 168.342,72.055 z M168.342,70.789 Q170.885,70.789 172.385,72.471 Q173.885,74.152 173.885,77.023 Q173.885,79.895 172.379,81.594 Q170.873,83.293 168.342,83.293 Q165.823,83.293 164.311,81.594 Q162.799,79.895 162.799,77.023 Q162.799,74.164 164.305,72.477 Q165.811,70.789 168.342,70.789 z" fill="#01429E"/>
    <path d="M204.088,75.699 L204.088,83 L202.577,83 L202.577,76.062 Q202.577,74.047 201.879,73.098 Q201.182,72.148 199.694,72.148 Q198.041,72.148 197.104,73.373 Q196.166,74.598 196.166,76.789 L196.166,83 L194.655,83 L194.655,71.047 L196.049,71.047 L196.049,73.309 Q196.705,72.043 197.719,71.416 Q198.733,70.789 200.127,70.789 Q202.061,70.789 203.075,72.049 Q204.088,73.309 204.088,75.699 z" fill="#01429E"/>
    <path d="M225.409,71.047 L226.92,71.047 L226.92,83 L225.409,83 z M225.291,65.457 L227.014,65.457 L227.014,67.402 L225.291,67.402 z" fill="#01429E"/>
    <path d="M256.35,71.41 L256.233,72.922 Q255.647,72.605 254.979,72.453 Q254.311,72.301 253.514,72.301 Q251.592,72.301 250.373,73.613 Q249.155,74.926 249.155,77.023 Q249.155,79.203 250.309,80.48 Q251.463,81.758 253.42,81.758 Q254.1,81.758 254.803,81.594 Q255.506,81.43 256.256,81.102 L256.397,82.59 Q255.682,82.871 254.909,83.006 Q254.135,83.141 253.327,83.141 Q250.713,83.141 249.125,81.465 Q247.538,79.789 247.538,77 Q247.538,74.305 249.213,72.629 Q250.889,70.953 253.584,70.953 Q254.346,70.953 255.026,71.064 Q255.705,71.176 256.35,71.41 z" fill="#01429E"/>
    <path d="M282.534,71.316 L282.534,72.723 Q281.866,72.43 281.168,72.277 Q280.471,72.125 279.745,72.125 Q278.62,72.125 277.934,72.605 Q277.248,73.086 277.248,73.859 Q277.248,74.926 279.569,75.992 Q279.803,76.109 279.909,76.156 Q281.725,77.012 282.416,77.803 Q283.108,78.594 283.108,79.707 Q283.108,81.277 281.93,82.209 Q280.752,83.141 278.76,83.141 Q277.881,83.141 277.09,83 Q276.299,82.859 275.62,82.566 L275.62,81.148 Q276.381,81.523 277.149,81.711 Q277.916,81.898 278.666,81.898 Q279.944,81.898 280.735,81.318 Q281.526,80.738 281.526,79.836 Q281.526,79.074 281.063,78.553 Q280.6,78.031 278.76,77.164 Q276.932,76.285 276.311,75.576 Q275.69,74.867 275.69,73.859 Q275.69,72.559 276.768,71.732 Q277.846,70.906 279.581,70.906 Q280.389,70.906 281.127,71.006 Q281.866,71.105 282.534,71.316 z" fill="#01429E"/>
    <path d="M1.268,58 L284.732,58" fill-opacity="0" stroke="#F6B800" stroke-width="4"/>
  </g>
</svg>
